<svg xmlns="http://www.w3.org/2000/svg" viewBox="0 0 24 24"><path fill="none" d="M0 0h24v24H0z"/><path d="M12 14v2a6 6 0 0 0-6 6H4a8 8 0 0 1 8-8zm0-1c-3.315 0-6-2.685-6-6s2.685-6 6-6 6 2.685 6 6-2.685 6-6 6zm0-2c2.21 0 4-1.79 4-4s-1.79-4-4-4-4 1.79-4 4 1.79 4 4 4z" fill="#D946EF"/>
<path d="m 14.595 18.812 a 3.51 3.51 0 0 1 0 -1.623 l -0.992 -0.573 l 1 -1.732 l 0.992 0.573 a 3.496 3.496 0 0 1 1.405 -0.812 v -1.145 h 2 v 1.145 c 0.532 0.158 1.012 0.44 1.405 0.812 l 0.992 -0.573 l 1 1.732 l -0.992 0.573 a 3.51 3.51 0 0 1 0 1.622 l 0.992 0.573 l -1 1.732 l -0.992 -0.573 a 3.496 3.496 0 0 1 -1.405 0.812 v 1.145 h -2 v -1.145 a 3.496 3.496 0 0 1 -1.405 -0.812 l -0.992 0.573 l -1 -1.732 l 0.992 -0.572 z m 3.405 0.688 a 1.5 1.5 0 1 0 0 -3 a 1.5 1.5 0 0 0 0 3 z" fill="current"/>
</svg>